<svg width="30" height="30" viewBox="0 0 30 30" fill="none" xmlns="http://www.w3.org/2000/svg">
  <path fill-rule="evenodd" clip-rule="evenodd" d="M24.2541 5.06281C24.1004 4.99996 23.9358 4.96833 23.7699 4.96977C23.6039 4.97122 23.4399 5.0057 23.2874 5.07121C23.1348 5.13672 22.9969 5.23195 22.8816 5.35134L22.8664 5.36683L12.5 15.7332V17.5004H14.2672L24.6336 7.13406L24.6491 7.11884C24.7685 7.00353 24.8637 6.86559 24.9292 6.71309C24.9947 6.56059 25.0292 6.39656 25.0307 6.23059C25.0321 6.06462 25.0005 5.90002 24.9376 5.74639C24.8748 5.59277 24.782 5.45321 24.6646 5.33584C24.5472 5.21848 24.4077 5.12566 24.2541 5.06281ZM23.7481 2.46987C24.2461 2.46554 24.7399 2.56042 25.2007 2.74898C25.6616 2.93753 26.0803 3.21598 26.4324 3.56808C26.7845 3.92017 27.0629 4.33887 27.2515 4.79973C27.44 5.26059 27.5349 5.75439 27.5306 6.25231C27.5263 6.75024 27.4228 7.24231 27.2263 7.69982C27.0313 8.15366 26.7486 8.56447 26.3945 8.90869L15.6689 19.6343C15.4345 19.8687 15.1165 20.0004 14.785 20.0004H11.25C10.5596 20.0004 10 19.4408 10 18.7504V15.2154C10 14.8839 10.1317 14.566 10.3661 14.3316L21.0917 3.60596C21.436 3.25182 21.8468 2.96914 22.3006 2.77418C22.7581 2.57764 23.2502 2.4742 23.7481 2.46987ZM4.84835 6.0988C5.55161 5.39553 6.50544 5.00045 7.5 5.00045H13.75C14.4404 5.00045 15 5.56009 15 6.25045C15 6.9408 14.4404 7.50045 13.75 7.50045H7.5C7.16848 7.50045 6.85054 7.63214 6.61612 7.86656C6.3817 8.10098 6.25 8.41893 6.25 8.75045V22.5004C6.25 22.832 6.3817 23.1499 6.61612 23.3843C6.85054 23.6188 7.16848 23.7504 7.5 23.7504H21.25C21.5815 23.7504 21.8995 23.6188 22.1339 23.3843C22.3683 23.1499 22.5 22.832 22.5 22.5004V16.2504C22.5 15.5601 23.0596 15.0004 23.75 15.0004C24.4404 15.0004 25 15.5601 25 16.2504V22.5004C25 23.495 24.6049 24.4488 23.9016 25.1521C23.1984 25.8554 22.2446 26.2504 21.25 26.2504H7.5C6.50544 26.2504 5.55161 25.8554 4.84835 25.1521C4.14509 24.4488 3.75 23.495 3.75 22.5004V8.75045C3.75 7.75589 4.14509 6.80206 4.84835 6.0988Z" fill="#3E9B97"/>
</svg>
