<svg width="12" height="14" viewBox="0 0 12 14" fill="none" xmlns="http://www.w3.org/2000/svg">
  <path
    d="M4 0C3.82319 0 3.65362 0.070238 3.52859 0.195262C3.40357 0.320287 3.33333 0.489856 3.33333 0.666667C3.33333 0.843478 3.40357 1.01305 3.52859 1.13807C3.65362 1.2631 3.82319 1.33333 4 1.33333H8C8.17681 1.33333 8.34638 1.2631 8.47141 1.13807C8.59643 1.01305 8.66667 0.843478 8.66667 0.666667C8.66667 0.489856 8.59643 0.320287 8.47141 0.195262C8.34638 0.070238 8.17681 0 8 0H4ZM2.66667 7.33333C2.66667 7.68696 2.52619 8.02609 2.27614 8.27614C2.02609 8.52619 1.68696 8.66667 1.33333 8.66667C0.979711 8.66667 0.640573 8.52619 0.390525 8.27614C0.140476 8.02609 0 7.68696 0 7.33333C0 6.97971 0.140476 6.64057 0.390525 6.39052C0.640573 6.14048 0.979711 6 1.33333 6C1.68696 6 2.02609 6.14048 2.27614 6.39052C2.52619 6.64057 2.66667 6.97971 2.66667 7.33333ZM2.66667 12C2.66667 12.3536 2.52619 12.6928 2.27614 12.9428C2.02609 13.1929 1.68696 13.3333 1.33333 13.3333C0.979711 13.3333 0.640573 13.1929 0.390525 12.9428C0.140476 12.6928 0 12.3536 0 12C0 11.6464 0.140476 11.3072 0.390525 11.0572C0.640573 10.8071 0.979711 10.6667 1.33333 10.6667C1.68696 10.6667 2.02609 10.8071 2.27614 11.0572C2.52619 11.3072 2.66667 11.6464 2.66667 12ZM6 8.66667C6.35362 8.66667 6.69276 8.52619 6.94281 8.27614C7.19286 8.02609 7.33333 7.68696 7.33333 7.33333C7.33333 6.97971 7.19286 6.64057 6.94281 6.39052C6.69276 6.14048 6.35362 6 6 6C5.64638 6 5.30724 6.14048 5.05719 6.39052C4.80714 6.64057 4.66667 6.97971 4.66667 7.33333C4.66667 7.68696 4.80714 8.02609 5.05719 8.27614C5.30724 8.52619 5.64638 8.66667 6 8.66667ZM7.33333 12C7.33333 12.3536 7.19286 12.6928 6.94281 12.9428C6.69276 13.1929 6.35362 13.3333 6 13.3333C5.64638 13.3333 5.30724 13.1929 5.05719 12.9428C4.80714 12.6928 4.66667 12.3536 4.66667 12C4.66667 11.6464 4.80714 11.3072 5.05719 11.0572C5.30724 10.8071 5.64638 10.6667 6 10.6667C6.35362 10.6667 6.69276 10.8071 6.94281 11.0572C7.19286 11.3072 7.33333 11.6464 7.33333 12ZM10.6667 8.66667C11.0203 8.66667 11.3594 8.52619 11.6095 8.27614C11.8595 8.02609 12 7.68696 12 7.33333C12 6.97971 11.8595 6.64057 11.6095 6.39052C11.3594 6.14048 11.0203 6 10.6667 6C10.313 6 9.97391 6.14048 9.72386 6.39052C9.47381 6.64057 9.33333 6.97971 9.33333 7.33333C9.33333 7.68696 9.47381 8.02609 9.72386 8.27614C9.97391 8.52619 10.313 8.66667 10.6667 8.66667Z"
    fill="black"
  />
</svg>
