<svg width="20" height="18" viewBox="0 0 20 18" fill="none" xmlns="http://www.w3.org/2000/svg">
  <path fill-rule="evenodd" clip-rule="evenodd" d="M4.0625 3.9375C3.81386 3.9375 3.5754 4.02639 3.39959 4.18463C3.22377 4.34286 3.125 4.55747 3.125 4.78125V13.2188C3.125 13.4425 3.22377 13.6571 3.39959 13.8154C3.5754 13.9736 3.81386 14.0625 4.0625 14.0625H10.3125C10.5611 14.0625 10.7996 13.9736 10.9754 13.8154C11.1512 13.6571 11.25 13.4425 11.25 13.2188V11.8125C11.25 11.5018 11.5298 11.25 11.875 11.25C12.2202 11.25 12.5 11.5018 12.5 11.8125V13.2188C12.5 13.7409 12.2695 14.2417 11.8593 14.6109C11.4491 14.9801 10.8927 15.1875 10.3125 15.1875H4.0625C3.48234 15.1875 2.92594 14.9801 2.5157 14.6109C2.10547 14.2417 1.875 13.7409 1.875 13.2188V4.78125C1.875 4.2591 2.10547 3.75835 2.5157 3.38913C2.92594 3.01992 3.48234 2.8125 4.0625 2.8125H10C10.5869 2.8125 11.1887 3.02124 11.6466 3.34412C12.102 3.66532 12.5 4.1643 12.5 4.78125V6.1875C12.5 6.49816 12.2202 6.75 11.875 6.75C11.5298 6.75 11.25 6.49816 11.25 6.1875V4.78125C11.25 4.62159 11.1419 4.41745 10.8756 4.22968C10.6117 4.04358 10.276 3.9375 10 3.9375H4.0625ZM13.9331 5.78975C14.1771 5.57008 14.5729 5.57008 14.8169 5.78975L17.9419 8.60225C18.186 8.82192 18.186 9.17808 17.9419 9.39775L14.8169 12.2102C14.5729 12.4299 14.1771 12.4299 13.9331 12.2102C13.689 11.9906 13.689 11.6344 13.9331 11.4148L15.9911 9.5625H6.875C6.52982 9.5625 6.25 9.31066 6.25 9C6.25 8.68934 6.52982 8.4375 6.875 8.4375H15.9911L13.9331 6.58525C13.689 6.36558 13.689 6.00942 13.9331 5.78975Z" fill="black"/>
</svg>
