<svg width="32" height="32" viewBox="0 0 32 32" fill="none" xmlns="http://www.w3.org/2000/svg">
  <path d="M14 9.66699C13.8232 9.66699 13.6536 9.73723 13.5286 9.86225C13.4036 9.98728 13.3333 10.1568 13.3333 10.3337C13.3333 10.5105 13.4036 10.68 13.5286 10.8051C13.6536 10.9301 13.8232 11.0003 14 11.0003H18C18.1768 11.0003 18.3464 10.9301 18.4714 10.8051C18.5964 10.68 18.6667 10.5105 18.6667 10.3337C18.6667 10.1568 18.5964 9.98728 18.4714 9.86225C18.3464 9.73723 18.1768 9.66699 18 9.66699H14ZM12.6667 17.0003C12.6667 17.3539 12.5262 17.6931 12.2761 17.9431C12.0261 18.1932 11.687 18.3337 11.3333 18.3337C10.9797 18.3337 10.6406 18.1932 10.3905 17.9431C10.1405 17.6931 10 17.3539 10 17.0003C10 16.6467 10.1405 16.3076 10.3905 16.0575C10.6406 15.8075 10.9797 15.667 11.3333 15.667C11.687 15.667 12.0261 15.8075 12.2761 16.0575C12.5262 16.3076 12.6667 16.6467 12.6667 17.0003ZM12.6667 21.667C12.6667 22.0206 12.5262 22.3598 12.2761 22.6098C12.0261 22.8599 11.687 23.0003 11.3333 23.0003C10.9797 23.0003 10.6406 22.8599 10.3905 22.6098C10.1405 22.3598 10 22.0206 10 21.667C10 21.3134 10.1405 20.9742 10.3905 20.7242C10.6406 20.4741 10.9797 20.3337 11.3333 20.3337C11.687 20.3337 12.0261 20.4741 12.2761 20.7242C12.5262 20.9742 12.6667 21.3134 12.6667 21.667ZM16 18.3337C16.3536 18.3337 16.6928 18.1932 16.9428 17.9431C17.1929 17.6931 17.3333 17.3539 17.3333 17.0003C17.3333 16.6467 17.1929 16.3076 16.9428 16.0575C16.6928 15.8075 16.3536 15.667 16 15.667C15.6464 15.667 15.3072 15.8075 15.0572 16.0575C14.8071 16.3076 14.6667 16.6467 14.6667 17.0003C14.6667 17.3539 14.8071 17.6931 15.0572 17.9431C15.3072 18.1932 15.6464 18.3337 16 18.3337ZM17.3333 21.667C17.3333 22.0206 17.1929 22.3598 16.9428 22.6098C16.6928 22.8599 16.3536 23.0003 16 23.0003C15.6464 23.0003 15.3072 22.8599 15.0572 22.6098C14.8071 22.3598 14.6667 22.0206 14.6667 21.667C14.6667 21.3134 14.8071 20.9742 15.0572 20.7242C15.3072 20.4741 15.6464 20.3337 16 20.3337C16.3536 20.3337 16.6928 20.4741 16.9428 20.7242C17.1929 20.9742 17.3333 21.3134 17.3333 21.667ZM20.6667 18.3337C21.0203 18.3337 21.3594 18.1932 21.6095 17.9431C21.8595 17.6931 22 17.3539 22 17.0003C22 16.6467 21.8595 16.3076 21.6095 16.0575C21.3594 15.8075 21.0203 15.667 20.6667 15.667C20.313 15.667 19.9739 15.8075 19.7239 16.0575C19.4738 16.3076 19.3333 16.6467 19.3333 17.0003C19.3333 17.3539 19.4738 17.6931 19.7239 17.9431C19.9739 18.1932 20.313 18.3337 20.6667 18.3337Z" fill="black"/>
  <path fill-rule="evenodd" clip-rule="evenodd" d="M10.6667 4.66699C10.8435 4.66699 11.013 4.73723 11.1381 4.86225C11.2631 4.98728 11.3333 5.15685 11.3333 5.33366V6.66699H20.6667V5.33366C20.6667 5.15685 20.7369 4.98728 20.8619 4.86225C20.987 4.73723 21.1565 4.66699 21.3333 4.66699C21.5101 4.66699 21.6797 4.73723 21.8047 4.86225C21.9298 4.98728 22 5.15685 22 5.33366V6.67099C22.3262 6.67366 22.6169 6.68521 22.872 6.70566C23.3587 6.74566 23.7853 6.82966 24.18 7.02966C24.807 7.34952 25.3167 7.85967 25.636 8.48699C25.8373 8.88166 25.9213 9.30833 25.9613 9.79366C26 10.267 26 10.8497 26 11.5723V21.7617C26 22.4843 26 23.0683 25.9613 23.539C25.9213 24.0257 25.8373 24.4523 25.636 24.847C25.3165 25.4738 24.8068 25.9835 24.18 26.303C23.7853 26.5043 23.3587 26.5883 22.8733 26.6283C22.4 26.667 21.8173 26.667 21.096 26.667H10.9053C10.1827 26.667 9.59867 26.667 9.128 26.6283C8.64133 26.5883 8.21467 26.5043 7.82 26.303C7.19333 25.9835 6.68333 25.4738 6.36367 24.847C6.16233 24.4523 6.07833 24.0257 6.03867 23.539C6 23.0683 6 22.4843 6 21.7617V11.5723C6 10.8497 6 10.267 6.03867 9.79366C6.07833 9.30833 6.16233 8.88166 6.36367 8.48699C6.68333 7.85967 7.19333 7.34952 7.82 7.02966C8.21467 6.82966 8.64133 6.74566 9.128 6.70566C9.38333 6.68566 9.674 6.67366 10 6.67099V5.33366C10 5.15685 10.0702 4.98728 10.1953 4.86225C10.3203 4.73723 10.4899 4.66699 10.6667 4.66699Z" fill="black"/>
</svg>
