<svg width="25" height="25" viewBox="0 0 25 25" fill="none" xmlns="http://www.w3.org/2000/svg">
  <path d="M12.5001 22.917C13.6459 22.917 14.5834 21.9795 14.5834 20.8337H10.4167C10.4167 21.9795 11.3542 22.917 12.5001 22.917ZM18.7501 16.667V11.4587C18.7501 8.26074 17.0522 5.58366 14.0626 4.87533V4.16699C14.0626 3.30241 13.3647 2.60449 12.5001 2.60449C11.6355 2.60449 10.9376 3.30241 10.9376 4.16699V4.87533C7.95842 5.58366 6.25008 8.25033 6.25008 11.4587V16.667L4.16675 18.7503V19.792H20.8334V18.7503L18.7501 16.667ZM16.6667 17.7087H8.33342V11.4587C8.33342 8.87533 9.90633 6.77116 12.5001 6.77116C15.0938 6.77116 16.6667 8.87533 16.6667 11.4587V17.7087Z" fill="#3E9B97"/>
</svg>
