<svg width="18" height="18" viewBox="0 0 18 18" fill="none" xmlns="http://www.w3.org/2000/svg">
  <path fill-rule="evenodd" clip-rule="evenodd" 
        d="M8.15625 3.9375C7.93247 3.9375 7.71786 4.02639 7.55963 4.18463C7.40139 4.34286 7.3125 4.55747 7.3125 4.78125V6.1875C7.3125 6.49816 7.06066 6.75 6.75 6.75C6.43934 6.75 6.1875 6.49816 6.1875 6.1875V4.78125C6.1875 4.2591 6.39492 3.75835 6.76413 3.38913C7.13335 3.01992 7.6341 2.8125 8.15625 2.8125H13.7812C14.3034 2.8125 14.8042 3.01992 15.1734 3.38913C15.5426 3.75835 15.75 4.2591 15.75 4.78125V13.2188C15.75 13.7409 15.5426 14.2417 15.1734 14.6109C14.8042 14.9801 14.3034 15.1875 13.7812 15.1875H8.4375C7.90931 15.1875 7.36769 14.9788 6.9556 14.6559C6.54566 14.3347 6.1875 13.8357 6.1875 13.2188V11.8125C6.1875 11.5018 6.43934 11.25 6.75 11.25C7.06066 11.25 7.3125 11.5018 7.3125 11.8125V13.2188C7.3125 13.3784 7.40979 13.5825 7.64945 13.7703C7.88696 13.9564 8.18908 14.0625 8.4375 14.0625H13.7812C14.005 14.0625 14.2196 13.9736 14.3779 13.8154C14.5361 13.6571 14.625 13.4425 14.625 13.2188V4.78125C14.625 4.55747 14.5361 4.34286 14.3779 4.18463C14.2196 4.02639 14.005 3.9375 13.7812 3.9375H8.15625Z" fill="black"/>
  <path fill-rule="evenodd" clip-rule="evenodd" 
        d="M9.72725 5.78975C9.94692 5.57008 10.3031 5.57008 10.5227 5.78975L13.3352 8.60225C13.5549 8.82192 13.5549 9.17808 13.3352 9.39775L10.5227 12.2102C10.3031 12.4299 9.94692 12.4299 9.72725 12.2102C9.50758 11.9906 9.50758 11.6344 9.72725 11.4148L11.5795 9.5625H2.8125C2.50184 9.5625 2.25 9.31066 2.25 9C2.25 8.68934 2.50184 8.4375 2.8125 8.4375H11.5795L9.72725 6.58525C9.50758 6.36558 9.50758 6.00942 9.72725 5.78975Z" fill="black"/>
</svg>
