<svg width="40" height="40" viewBox="0 0 40 40" fill="none" xmlns="http://www.w3.org/2000/svg">
  <path fill-rule="evenodd" clip-rule="evenodd" d="M32.3387 6.74944C32.1339 6.66563 31.9144 6.62347 31.6931 6.62539C31.4718 6.62731 31.2531 6.67329 31.0498 6.76064C30.8465 6.84799 30.6626 6.97495 30.5088 7.13414L30.4885 7.1548L16.6667 20.9766V23.333H19.023L32.8448 9.51111L32.8655 9.49081C33.0247 9.33706 33.1516 9.15315 33.239 8.94981C33.3263 8.74647 33.3723 8.52777 33.3742 8.30647C33.3762 8.08518 33.334 7.86572 33.2502 7.66088C33.1664 7.45606 33.0426 7.26997 32.8861 7.11348C32.7296 6.95699 32.5436 6.83324 32.3387 6.74944ZM31.6642 3.29218C32.3281 3.28641 32.9865 3.41292 33.601 3.66432C34.2154 3.91573 34.7737 4.287 35.2432 4.75646C35.7126 5.22592 36.0839 5.78418 36.3353 6.39866C36.5867 7.01314 36.7132 7.67154 36.7074 8.33544C36.7017 8.99934 36.5637 9.65544 36.3017 10.2655C36.0418 10.8706 35.6649 11.4183 35.1927 11.8773L20.8918 26.1781C20.5793 26.4907 20.1554 26.6663 19.7133 26.6663H15C14.0795 26.6663 13.3333 25.9201 13.3333 24.9996V20.2863C13.3333 19.8443 13.5089 19.4203 13.8215 19.1078L28.1223 4.80697C28.5813 4.33479 29.129 3.95787 29.7342 3.69793C30.3442 3.43588 31.0003 3.29795 31.6642 3.29218ZM6.46447 8.13075C7.40215 7.19307 8.67392 6.66629 10 6.66629H18.3333C19.2538 6.66629 20 7.41248 20 8.33295C20 9.25343 19.2538 9.99962 18.3333 9.99962H10C9.55797 9.99962 9.13405 10.1752 8.82149 10.4878C8.50893 10.8003 8.33333 11.2243 8.33333 11.6663V29.9996C8.33333 30.4416 8.50893 30.8656 8.82149 31.1781C9.13405 31.4907 9.55797 31.6663 10 31.6663H28.3333C28.7754 31.6663 29.1993 31.4907 29.5118 31.1781C29.8244 30.8656 30 30.4416 30 29.9996V21.6663C30 20.7458 30.7462 19.9996 31.6667 19.9996C32.5871 19.9996 33.3333 20.7458 33.3333 21.6663V29.9996C33.3333 31.3257 32.8065 32.5975 31.8689 33.5352C30.9312 34.4728 29.6594 34.9996 28.3333 34.9996H10C8.67392 34.9996 7.40215 34.4728 6.46447 33.5352C5.52678 32.5975 5 31.3257 5 29.9996V11.6663C5 10.3402 5.52678 9.06843 6.46447 8.13075Z" fill="black"/>
</svg>
