<svg width="20" height="22" viewBox="0 0 20 22" fill="none" xmlns="http://www.w3.org/2000/svg">
  <path
    fill-rule="evenodd"
    clip-rule="evenodd"
    d="M4.66667 0C4.84348 0 5.01305 0.070238 5.13807 0.195262C5.2631 0.320287 5.33333 0.489856 5.33333 0.666667V2H14.6667V0.666667C14.6667 0.489856 14.7369 0.320287 14.8619 0.195262C14.987 0.070238 15.1565 0 15.3333 0C15.5101 0 15.6797 0.070238 15.8047 0.195262C15.9298 0.320287 16 0.489856 16 0.666667V2.004C16.3262 2.00667 16.6169 2.01822 16.872 2.03867C17.3587 2.07867 17.7853 2.16267 18.18 2.36267C18.807 2.68253 19.3167 3.19267 19.636 3.82C19.8373 4.21467 19.9213 4.64133 19.9613 5.12667C20 5.6 20 6.18267 20 6.90533V17.0947C20 17.8173 20 18.4013 19.9613 18.872C19.9213 19.3587 19.8373 19.7853 19.636 20.18C19.3165 20.8068 18.8068 21.3165 18.18 21.636C17.7853 21.8373 17.3587 21.9213 16.8733 21.9613C16.4 22 15.8173 22 15.096 22H4.90533C4.18267 22 3.59867 22 3.128 21.9613C2.64133 21.9213 2.21467 21.8373 1.82 21.636C1.19267 21.3167 0.682527 20.807 0.362666 20.18C0.162666 19.7853 0.0786664 19.3587 0.0386664 18.8733C-2.58287e-07 18.4 0 17.816 0 17.0933V6.90667C0 6.27333 -2.48353e-08 5.74933 0.0266666 5.31067L0.0386664 5.12933C0.0786664 4.64267 0.162666 4.216 0.362666 3.82133C0.6823 3.19381 1.19247 2.68363 1.82 2.364C2.21467 2.164 2.64133 2.08 3.12667 2.04C3.38356 2.01956 3.67467 2.008 4 2.00533V0.666667C4 0.489856 4.07024 0.320287 4.19526 0.195262C4.32029 0.070238 4.48986 0 4.66667 0ZM4 4V3.33733C3.74507 3.33944 3.49028 3.34966 3.236 3.368C2.83333 3.4 2.60133 3.46133 2.42533 3.55067C2.04868 3.74247 1.74247 4.04868 1.55067 4.42533C1.46133 4.60133 1.4 4.83333 1.368 5.236C1.33333 5.648 1.33333 6.176 1.33333 6.93333V7.66667H18.6667V6.93333C18.6667 6.176 18.6667 5.648 18.632 5.236C18.6 4.83333 18.5387 4.60133 18.4493 4.42533C18.2575 4.04868 17.9513 3.74247 17.5747 3.55067C17.3987 3.46133 17.1667 3.4 16.764 3.368C16.5097 3.34966 16.2549 3.33944 16 3.33733V4C16 4.17681 15.9298 4.34638 15.8047 4.4714C15.6797 4.59643 15.5101 4.66667 15.3333 4.66667C15.1565 4.66667 14.987 4.59643 14.8619 4.4714C14.7369 4.34638 14.6667 4.17681 14.6667 4V3.33333H5.33333V4C5.33333 4.17681 5.2631 4.34638 5.13807 4.4714C5.01305 4.59643 4.84348 4.66667 4.66667 4.66667C4.48986 4.66667 4.32029 4.59643 4.19526 4.4714C4.07024 4.34638 4 4.17681 4 4ZM18.6667 9H1.33333V17.0667C1.33333 17.824 1.33333 18.3533 1.368 18.764C1.4 19.1667 1.46133 19.3987 1.55067 19.5747C1.74247 19.9513 2.04868 20.2575 2.42533 20.4493C2.60133 20.5387 2.83333 20.6 3.236 20.632C3.648 20.6667 4.176 20.6667 4.93333 20.6667H15.0667C15.824 20.6667 16.3533 20.6667 16.764 20.632C17.1667 20.6 17.3987 20.5387 17.5747 20.4493C17.9513 20.2575 18.2575 19.9513 18.4493 19.5747C18.5387 19.3987 18.6 19.1667 18.632 18.764C18.6667 18.3533 18.6667 17.824 18.6667 17.0667V9Z"
    fill="black"
  />
</svg>
