<svg width="40" height="40" viewBox="0 0 40 40" fill="none" xmlns="http://www.w3.org/2000/svg">
  <path d="M31.6667 6.66634H28.3333V3.33301H25V6.66634H15V3.33301H11.6667V6.66634H8.33333C6.495 6.66634 5 8.16134 5 9.99967V33.333C5 35.1713 6.495 36.6663 8.33333 36.6663H31.6667C33.505 36.6663 35 35.1713 35 33.333V9.99967C35 8.16134 33.505 6.66634 31.6667 6.66634ZM31.67 33.333H8.33333V13.333H31.6667L31.67 33.333Z" fill="black"/>
  <path d="M18.3333 29.0236L27.845 19.5119L25.4883 17.1553L18.3333 24.3103L14.5117 20.4886L12.155 22.8453L18.3333 29.0236Z" fill="black"/>
</svg>
