<svg width="12" height="16" viewBox="0 0 12 16" fill="none" xmlns="http://www.w3.org/2000/svg">
  <path d="M3.74378 7.99874L11.1628 2.35592C11.4589 2.12888 11.6444 1.80399 11.6787 1.45238C11.7129 1.10077 11.5931 0.751108 11.3455 0.479959C11.0979 0.208811 10.7426 0.0382752 10.3576 0.00569795C9.97247 -0.0268793 9.58894 0.0811566 9.29094 0.306147L0.525054 6.97383C0.360687 7.09917 0.228472 7.25593 0.137748 7.43302C0.0470227 7.61011 0 7.80323 0 7.99873C0 8.19422 0.0470227 8.38734 0.137748 8.56443C0.228472 8.74153 0.360687 8.89828 0.525054 9.02362L9.29094 15.6913C9.5888 15.9174 9.9728 16.0263 10.3586 15.9941C10.7444 15.9619 11.1004 15.7913 11.3484 15.5197C11.5964 15.248 11.7162 14.8977 11.6814 14.5455C11.6466 14.1934 11.4601 13.8682 11.1628 13.6415L3.74378 7.99874Z" fill="white"/>
</svg>
