<svg width="34" height="33" viewBox="0 0 34 33" fill="none" xmlns="http://www.w3.org/2000/svg">
  <path fill-rule="evenodd" clip-rule="evenodd" d="M6.375 10.3125H14.875V12.375H6.375V10.3125ZM6.375 16.5H14.875V14.4375H6.375V16.5ZM6.375 20.625H14.875V18.5625H6.375V20.625ZM29.75 10.3125H21.25V12.375H29.75V10.3125ZM29.75 14.4375H21.25V16.5H29.75V14.4375ZM29.75 18.5625H21.25V20.625H29.75V18.5625ZM34 6.1875V24.75C34 25.8844 33.0438 26.8125 31.875 26.8125H20.1875L18.0625 28.875L15.9375 26.8125H4.25C3.08125 26.8125 2.125 25.8844 2.125 24.75V6.1875C2.125 5.05312 3.08125 4.125 4.25 4.125H15.9375L18.0625 6.1875L20.1875 4.125H31.875C33.0438 4.125 34 5.05312 34 6.1875ZM17 7.21875L15.9375 6.1875H4.25V24.75H17V7.21875ZM31.875 6.1875H20.1875L19.125 7.21875V24.75H31.875V6.1875Z" fill="#3E9B97"/>
</svg>
