<svg width="30" height="30" viewBox="0 0 30 30" fill="none" xmlns="http://www.w3.org/2000/svg">
  <path d="M23.75 5H21.25V2.5H18.75V5H11.25V2.5H8.75V5H6.25C4.87125 5 3.75 6.12125 3.75 7.5V25C3.75 26.3787 4.87125 27.5 6.25 27.5H23.75C25.1287 27.5 26.25 26.3787 26.25 25V7.5C26.25 6.12125 25.1287 5 23.75 5ZM23.7525 25H6.25V10H23.75L23.7525 25Z" fill="#3E9B97"/>
  <path d="M13.75 21.7675L20.8838 14.6337L19.1163 12.8662L13.75 18.2325L10.8838 15.3662L9.11627 17.1337L13.75 21.7675Z" fill="#3E9B97"/>
</svg>
